<svg xmlns="http://www.w3.org/2000/svg" width="119" height="29" viewBox="0 0 119 29" fill="none">
  <g clip-path="url(#clip0_7996_713)">
    <path d="M31.0403 10.1006H42.9999V12.2921H38.298V24.6136H35.7109V12.2921H31.0293V10.0998H31.0394L31.0403 10.1006ZM42.4893 14.1046H44.7002V16.1332H44.7415C44.8149 15.8463 44.9499 15.5695 45.1482 15.3028C45.5723 14.7313 46.1461 14.2883 46.8064 14.0228C47.1417 13.8899 47.4988 13.8203 47.8595 13.8177C48.1295 13.8177 48.3286 13.8278 48.4333 13.8388C48.5371 13.8489 48.6408 13.8692 48.7556 13.8793V16.1121C48.5863 16.0825 48.416 16.0585 48.2451 16.0403C48.0754 16.0203 47.9046 16.0101 47.7337 16.01C47.3371 16.01 46.9625 16.0918 46.6081 16.2462C46.2537 16.399 45.9507 16.6344 45.6908 16.9323C45.4135 17.2653 45.2011 17.6474 45.0647 18.0588C44.9086 18.5094 44.8352 19.0207 44.8352 19.6055V24.6035H42.4792V14.1046H42.4893ZM59.5895 24.6145H57.2749V23.1496H57.2327C56.9407 23.6829 56.5138 24.1031 55.94 24.4204C55.3662 24.7377 54.7822 24.9014 54.1882 24.9014C52.7807 24.9014 51.7579 24.5639 51.1335 23.877C50.5074 23.191 50.1943 22.1564 50.1943 20.7734V14.1054H52.5511V20.5481C52.5511 21.4704 52.7284 22.126 53.0937 22.5049C53.4481 22.8838 53.9587 23.0787 54.605 23.0787C55.1054 23.0787 55.5121 23.007 55.8455 22.8526C56.1796 22.699 56.4505 22.5049 56.6488 22.2484C56.8572 22.0028 57.0032 21.6957 57.0977 21.3472C57.1905 20.9987 57.2327 20.6198 57.2327 20.2105V14.1156H59.5895V24.6145ZM63.6036 21.2451C63.677 21.9201 63.9369 22.3927 64.3858 22.6686C64.844 22.9353 65.3866 23.0787 66.0229 23.0787C66.2423 23.0787 66.492 23.0576 66.7739 23.0272C67.0549 22.996 67.3257 22.9243 67.5662 22.8332C67.816 22.7403 68.0135 22.5969 68.1805 22.4129C68.3375 22.2273 68.4101 21.9927 68.3999 21.6957C68.3986 21.5578 68.3682 21.4218 68.3108 21.2965C68.2533 21.1712 68.1702 21.0593 68.0666 20.9683C67.8574 20.7742 67.5975 20.6308 67.2734 20.5076C66.9125 20.3825 66.5431 20.2833 66.168 20.2105C65.7512 20.1287 65.3343 20.0359 64.9073 19.9439C64.4772 19.8508 64.0524 19.7345 63.6348 19.5954C63.2432 19.4699 62.8739 19.2834 62.5404 19.0427C62.2155 18.8159 61.9505 18.5136 61.7683 18.1617C61.5708 17.8031 61.4763 17.3626 61.4763 16.8302C61.4763 16.2564 61.6223 15.7855 61.9041 15.3957C62.1884 15.0091 62.5554 14.6908 62.9783 14.4641C63.4329 14.2238 63.9215 14.0545 64.4272 13.962C64.9588 13.87 65.4702 13.8185 65.9495 13.8185C66.5022 13.8185 67.0338 13.8801 67.535 13.9932C68.0203 14.0971 68.4828 14.2878 68.9003 14.5561C69.3071 14.8126 69.6404 15.1501 69.9121 15.5602C70.1829 15.9695 70.35 16.4715 70.4226 17.0555H67.962C67.8472 16.5028 67.5966 16.1239 67.1907 15.9391C66.784 15.745 66.3148 15.6522 65.7934 15.6522C65.6263 15.6522 65.428 15.6623 65.1993 15.6935C64.9789 15.7228 64.7621 15.7743 64.5521 15.8471C64.3601 15.9178 64.1859 16.0295 64.0416 16.1745C63.9715 16.2502 63.917 16.3389 63.8813 16.4356C63.8455 16.5323 63.8291 16.6352 63.8331 16.7382C63.8331 17.0251 63.9369 17.2504 64.1352 17.4242C64.3335 17.5981 64.5943 17.7415 64.9175 17.8647C65.2406 17.9778 65.606 18.0799 66.0229 18.1617C66.4397 18.2436 66.8667 18.3356 67.3055 18.4284C67.7325 18.5204 68.1493 18.6436 68.567 18.776C68.9839 18.9094 69.3484 19.0942 69.6724 19.3296C69.9956 19.565 70.2564 19.8519 70.4538 20.2004C70.6521 20.5481 70.7568 20.9886 70.7568 21.5008C70.7568 22.1252 70.6108 22.6484 70.318 23.0888C70.0268 23.5192 69.6513 23.877 69.1923 24.1436C68.7117 24.4204 68.1911 24.6209 67.6489 24.7377C67.0974 24.859 66.5344 24.9207 65.9697 24.9216C65.3373 24.9288 64.7066 24.853 64.0939 24.6963C63.5201 24.5428 63.0197 24.3175 62.6028 24.0213C62.1908 23.7219 61.8521 23.333 61.6122 22.8838C61.3725 22.4332 61.2468 21.8898 61.2266 21.2653H63.6036V21.2451ZM71.382 14.1063H73.165V10.9504H75.5219V14.1063H77.6483V15.8361H75.5227V21.4501C75.5227 21.6948 75.5328 21.9007 75.5539 22.0847C75.5742 22.2594 75.6265 22.4129 75.6999 22.5353C75.7797 22.6639 75.9008 22.7615 76.0433 22.8121C76.2003 22.8737 76.3978 22.9049 76.6695 22.9049C76.8357 22.9049 77.0028 22.9049 77.1699 22.8939C77.3369 22.8838 77.5032 22.8635 77.6702 22.8222V24.6145C77.4095 24.6457 77.1488 24.666 76.9091 24.6963C76.6565 24.7257 76.4023 24.7395 76.148 24.7377C75.5227 24.7377 75.0223 24.6761 74.646 24.5639C74.2713 24.4508 73.9684 24.277 73.7599 24.0517C73.5405 23.8264 73.4055 23.5496 73.322 23.2112C73.2408 22.8307 73.1956 22.4433 73.187 22.0543V15.8555H71.404V14.1038H71.3829L71.382 14.1063ZM79.3166 14.1063H81.5485V15.529H81.5907C81.9231 14.9147 82.3822 14.4843 82.9762 14.2185C83.5835 13.9485 84.2416 13.8121 84.9061 13.8185C85.7499 13.8185 86.4798 13.962 87.1059 14.259C87.7312 14.5459 88.2527 14.9459 88.6695 15.4573C89.0864 15.9695 89.3893 16.5635 89.5978 17.2403C89.8101 17.9443 89.9157 18.6761 89.9108 19.4114C89.9108 20.1177 89.8172 20.8038 89.629 21.4603C89.4562 22.0935 89.17 22.6902 88.7843 23.2213C88.4053 23.7334 87.9129 24.1507 87.3456 24.4407C86.7617 24.7478 86.0841 24.9014 85.2917 24.9014C84.9454 24.901 84.5997 24.8699 84.2589 24.8086C83.9188 24.7473 83.5868 24.6479 83.269 24.5124C82.9534 24.3807 82.6581 24.2045 82.3923 23.9892C82.1299 23.7799 81.9014 23.5315 81.7147 23.2526H81.6725V28.4969H79.3166V14.1046V14.1063ZM87.554 19.3701C87.5545 18.903 87.4915 18.438 87.3667 17.9879C87.2511 17.5614 87.0602 17.1591 86.803 16.7998C86.5589 16.458 86.2422 16.1744 85.8756 15.9695C85.4819 15.7567 85.0405 15.6475 84.593 15.6522C83.6024 15.6522 82.8514 15.9897 82.351 16.6665C81.8506 17.3424 81.6 18.2444 81.6 19.3701C81.6 19.9026 81.6632 20.3945 81.7983 20.8451C81.9333 21.2957 82.1214 21.6856 82.3923 22.013C82.6539 22.3412 82.9661 22.5969 83.3315 22.7809C83.696 22.9758 84.1238 23.0678 84.6031 23.0678C85.1457 23.0678 85.5938 22.9555 85.9693 22.7403C86.3329 22.5311 86.6461 22.2445 86.8865 21.9007C87.1262 21.5522 87.3042 21.1624 87.408 20.7228C87.504 20.2782 87.5529 19.8249 87.554 19.3701ZM91.7141 10.1006H94.0709V12.2929H91.7141V10.1006ZM91.7141 14.1054H94.0709V24.6145H91.7141V14.1054ZM96.1771 10.1006H98.5339V24.6145H96.1771V10.1006ZM105.76 24.9014C104.904 24.9014 104.143 24.7579 103.476 24.482C102.837 24.2199 102.259 23.8293 101.777 23.3344C101.308 22.8295 100.949 22.2331 100.723 21.5826C100.475 20.8646 100.351 20.1094 100.358 19.3498C100.358 18.5507 100.483 17.8141 100.723 17.1373C100.949 16.4872 101.308 15.891 101.777 15.3864C102.235 14.8944 102.809 14.5155 103.476 14.2388C104.143 13.962 104.904 13.8185 105.76 13.8185C106.614 13.8185 107.376 13.962 108.043 14.2388C108.71 14.5155 109.273 14.9054 109.742 15.3864C110.211 15.8908 110.57 16.4871 110.796 17.1373C111.035 17.8132 111.16 18.5507 111.16 19.3498C111.16 20.1599 111.035 20.9067 110.796 21.5826C110.57 22.2332 110.211 22.8297 109.742 23.3344C109.283 23.8264 108.71 24.2052 108.043 24.482C107.376 24.7579 106.614 24.9014 105.76 24.9014ZM105.76 23.0678C106.281 23.0678 106.739 22.9555 107.125 22.7403C107.501 22.5311 107.825 22.2405 108.074 21.8898C108.324 21.5421 108.501 21.1421 108.627 20.7017C108.742 20.2612 108.804 19.8106 108.804 19.3498C108.804 18.8992 108.742 18.4588 108.627 18.0082C108.519 17.5807 108.332 17.1776 108.074 16.82C107.825 16.4726 107.5 16.1857 107.125 15.9804C106.739 15.7653 106.281 15.6522 105.76 15.6522C105.238 15.6522 104.779 15.7653 104.393 15.9804C104.021 16.1889 103.697 16.4752 103.445 16.82C103.191 17.1797 103.004 17.5822 102.892 18.0082C102.777 18.4461 102.717 18.8969 102.714 19.3498C102.714 19.8106 102.778 20.2612 102.892 20.7017C103.007 21.1421 103.194 21.5421 103.445 21.8898C103.695 22.2383 104.008 22.5252 104.393 22.7403C104.779 22.9656 105.238 23.0678 105.76 23.0678ZM111.849 14.1063H113.632V10.9504H115.989V14.1063H118.115V15.8361H115.989V21.4501C115.989 21.6948 115.999 21.9007 116.019 22.0847C116.04 22.2594 116.092 22.4129 116.166 22.5353C116.245 22.664 116.366 22.7616 116.509 22.8121C116.666 22.8737 116.864 22.9049 117.135 22.9049C117.301 22.9049 117.469 22.9049 117.636 22.8939C117.803 22.8838 117.969 22.8635 118.136 22.8222V24.6145C117.875 24.6457 117.615 24.666 117.375 24.6963C117.122 24.7257 116.868 24.7395 116.614 24.7377C115.989 24.7377 115.487 24.6761 115.112 24.5639C114.737 24.4508 114.434 24.277 114.226 24.0517C114.007 23.8264 113.871 23.5496 113.788 23.2112C113.707 22.8306 113.661 22.4433 113.653 22.0543V15.8555H111.87V14.1038H111.849V14.1063Z" fill="white"/>
    <path d="M28.2877 10.0998H17.4858L14.1493 0L10.801 10.1006L0 10.0897L8.74797 16.3374L5.40135 26.4262L14.1493 20.1886L22.8872 26.4262L19.5507 16.3374L28.2877 10.0998Z" fill="#04DA8D"/>
    <path d="M20.3009 18.6224L19.5499 16.3382L14.1494 20.1894L20.3009 18.6224Z" fill="#126849"/>
  </g>
  <defs>
    <clipPath id="clip0_7996_713">
      <rect width="118.136" height="28.6902" fill="white"/>
    </clipPath>
  </defs>
</svg>
